<svg width="491" height="365" viewBox="0 0 491 365" fill="none" xmlns="http://www.w3.org/2000/svg">
<path fill-rule="evenodd" clip-rule="evenodd" d="M237.673 60.2425L237.671 60.2416C234.15 58.203 229.741 60.7471 229.741 64.8204V109.278L191.232 87.0423C187.711 85.0025 183.301 87.5467 183.301 91.6205V193.941C183.301 195.826 184.306 197.569 185.937 198.517L230.619 224.318L230.62 224.319C234.141 226.358 238.551 223.814 238.551 219.74V124.548L252.691 132.707V180.661C252.691 184.721 257.088 187.278 260.621 185.24L305.305 159.437C306.936 158.489 307.941 156.746 307.941 154.86V103.87C307.941 101.985 306.936 100.241 305.305 99.2936L237.673 60.2425ZM299.111 105.916L238.551 70.9446V114.364L258.864 126.094C260.495 127.041 261.501 128.785 261.501 130.67V174.542L299.111 152.825V105.916ZM192.121 191.904V97.7482L229.731 119.457V213.622L192.121 191.904Z" fill="#4031D4"/>
<path d="M396.121 303.181V244.751H402.681V297.211H429.241V303.191H396.121V303.181Z" fill="#151419" stroke="#151419" stroke-width="2"/>
<path d="M346.22 243.751C362.99 243.751 376.27 256.781 376.27 273.961C376.27 291.141 362.99 304.171 346.22 304.171C329.45 304.171 316.17 291.221 316.17 273.961C316.17 256.701 329.45 243.751 346.22 243.751ZM346.22 250.231C333.44 250.231 322.98 260.441 322.98 273.971C322.98 287.501 333.44 297.711 346.22 297.711C359 297.711 369.46 287.501 369.46 273.971C369.46 260.441 359 250.231 346.22 250.231Z" fill="#151419" stroke="#151419" stroke-width="2"/>
<path d="M281.19 303.181V250.811H263.01V244.751H305.84V250.811H287.75V303.181H281.19Z" fill="#151419" stroke="#151419" stroke-width="2"/>
<path d="M244.921 256.871C241.851 251.971 237.281 249.981 232.391 249.981C225.421 249.981 220.771 253.801 220.771 259.031C220.771 265.341 226.831 267.501 234.381 270.901C243.431 274.881 251.061 278.201 251.061 288.411C251.061 296.791 244.171 304.101 231.891 304.101C223.421 304.101 216.201 300.031 212.551 293.311L218.031 289.571C221.021 295.051 226.001 297.871 232.061 297.871C239.531 297.871 244.341 293.641 244.341 288.661C244.341 281.771 238.361 279.701 230.651 276.291C222.681 272.801 214.131 269.651 214.131 259.191C214.131 250.811 221.601 243.751 232.471 243.751C239.191 243.751 246.251 246.571 250.071 253.301L244.921 256.871Z" fill="#151419" stroke="#151419" stroke-width="2"/>
<path d="M198.731 291.731C193.581 299.121 185.281 304.181 174.831 304.181C158.061 304.181 144.951 291.071 144.951 273.971C144.951 256.871 158.151 243.761 174.661 243.761C185.451 243.761 193.091 248.661 197.901 254.971L193.001 259.541C188.851 254.061 182.871 250.241 174.661 250.241C161.631 250.241 151.751 260.531 151.751 273.981C151.751 287.431 161.631 297.721 174.821 297.721C183.451 297.721 189.761 293.571 193.911 287.591L198.721 291.741L198.731 291.731Z" fill="#151419" stroke="#151419" stroke-width="2"/>
<path d="M118.531 303.181V244.751H125.171V303.181H118.531Z" fill="#151419" stroke="#151419" stroke-width="2"/>
<path d="M68.3304 280.691V303.181H61.7705V244.751H82.0205C92.3105 244.751 100.11 251.971 100.11 262.681C100.11 273.391 92.3105 280.691 82.1005 280.691H68.3204H68.3304ZM68.3304 274.961H81.0305C88.1705 274.961 93.3105 270.151 93.3105 262.841C93.3105 255.531 88.1605 250.801 81.1105 250.801H68.3304V274.951V274.961Z" fill="#151419" stroke="#151419" stroke-width="2"/>
</svg>
